Coordinates
version=1
nRows=14
nColumns=33
inDegrees=yes

Units are S.I. units (second, meters, Newtons, ...)
Angles are in degrees.

endheader
time	ground_thorax_rot_x	ground_thorax_rot_y	ground_thorax_rot_z	ground_thorax_tx	ground_thorax_ty	ground_thorax_tz	clav_prot_r	clav_elev_r	scapula_abduction_r	scapula_elevation_r	scapula_upward_rot_r	scapula_winging_r	shoulder_elv_r	plane_of_elev_r	axial_rot_r	elbow_flexion_r	pro_sup_r	wrist_flex_r	wrist_dev_r	clav_prot_l	clav_elev_l	scapula_abduction_l	scapula_elevation_l	scapula_upward_rot_l	scapula_winging_l	shoulder_elv_l	plane_of_elev_l	axial_rot_l	elbow_flexion_l	pro_sup_l	wrist_flex_l	wrist_dev_l
     10.47000000	    -33.84647309	    -26.42930345	     39.04348880	    -32.28712032	    795.99525901	    -55.08872934	     27.61275473	    -45.00000000	     37.71548547	    -45.00000000	    -45.00000000	  -2623.28485748	  -4604.39589630	     17.98979844	   -137.70567409	   1799.43156821	   -172.66334779	     25.12733011	     18.01955371	      0.63697986	     31.29130554	    -29.03446146	    -45.00000000	    -45.00000000	  -5675.98559844	  -2084.17046008	     26.15750131	     45.32217453	     -9.81527700	   -314.10849989	     12.37338313	    -16.88764119
     10.48000000	    -34.07919640	    -26.21345194	     38.59732354	    -34.76432047	    797.52016265	    -55.37665339	     27.58606183	    -45.00000000	     37.64363900	    -45.00000000	    -45.00000000	  -2623.35257650	  -4604.31920968	     18.10387379	   -137.86428796	   1799.38507840	   -174.05412006	     24.89842430	     18.19401390	      0.64786336	     31.34406741	    -29.19842409	    -45.00000000	    -45.00000000	  -5675.78040341	  -2084.06846940	     26.23227666	     45.36922129	     -9.84397502	   -314.41357192	     12.40036530	    -16.88222747
     10.49000000	    -34.23752598	    -26.04636283	     38.21351983	    -37.24097423	    799.07421911	    -55.65397697	     27.55211588	    -45.00000000	     37.63980835	    -45.00000000	    -45.00000000	  -2623.44398382	  -4604.22058090	     18.15847600	   -137.94637285	   1799.33932015	   -175.27060717	     24.75518333	     18.29949647	      0.65543815	     31.38729047	    -29.30550782	    -45.00000000	    -45.00000000	  -5675.63856564	  -2083.97745805	     26.23690884	     45.44307498	     -9.83870067	   -314.70137638	     12.44471568	    -16.91454900
     10.50000000	    -34.38614640	    -25.87726940	     37.81659662	    -39.69646061	    800.66608356	    -55.92231525	     27.51269701	    -45.00000000	     37.66104231	    -45.00000000	    -45.00000000	  -2623.53258739	  -4604.09906282	     18.21036403	   -138.04506406	   1799.28245123	   -176.34549064	     24.65502433	     18.38336483	      0.67045196	     31.40634085	    -29.42218441	    -45.00000000	    -45.00000000	  -5675.49348021	  -2083.90443610	     26.24577331	     45.48228723	     -9.81606673	   -314.96699703	     12.48465064	    -16.95483865
     10.51000000	    -34.56486276	    -25.70673643	     37.40158238	    -42.12644966	    802.29539865	    -56.18093343	     27.48774146	    -45.00000000	     37.67352381	    -45.00000000	    -45.00000000	  -2623.62482805	  -4604.00177840	     18.25910950	   -138.06478862	   1799.27194380	   -177.24470128	     24.59726662	     18.45746417	      0.67135334	     31.49104967	    -29.54872975	    -45.00000000	    -45.00000000	  -5675.33434706	  -2083.79892329	     26.28366655	     45.59461888	     -9.80517836	   -315.19980799	     12.53610049	    -17.00640159
     10.52000000	    -34.67132986	    -25.58535646	     37.04628138	    -44.51986991	    803.96807977	    -56.43094004	     27.47233731	    -45.00000000	     37.74537685	    -45.00000000	    -45.00000000	  -2623.73495937	  -4603.88953519	     18.28994927	   -138.12257834	   1799.21150488	   -178.06301357	     24.55704902	     18.51245729	      0.66028175	     31.57151080	    -29.65420529	    -45.00000000	    -45.00000000	  -5675.19052845	  -2083.72152312	     26.27295927	     45.69553256	     -9.81331716	   -315.41538178	     12.61829118	    -17.08131329
     10.53000000	    -34.82483542	    -25.41287549	     36.61656139	    -46.87078888	    805.68876507	    -56.67292377	     27.43548137	    -45.00000000	     37.75717176	    -45.00000000	    -45.00000000	  -2623.82467914	  -4603.78601697	     18.34334295	   -138.26109534	   1799.17203076	   -178.80618545	     24.52488169	     18.57613937	      0.66975058	     31.61136349	    -29.78581675	    -45.00000000	    -45.00000000	  -5675.04470658	  -2083.63778617	     26.31060943	     45.81857536	     -9.80025582	   -315.60532887	     12.68283997	    -17.14916004
     10.54000000	    -34.97405035	    -25.24147719	     36.18410322	    -49.16792017	    807.45328759	    -56.90628884	     27.39718024	    -45.00000000	     37.76010540	    -45.00000000	    -45.00000000	  -2623.90888868	  -4603.68439628	     18.41932969	   -138.42209449	   1799.15974204	   -179.48495293	     24.48241027	     18.64929367	      0.68340636	     31.65943288	    -29.92289395	    -45.00000000	    -45.00000000	  -5674.89936339	  -2083.56691089	     26.34998659	     45.98547919	     -9.80161312	   -315.77255855	     12.74578878	    -17.20855867
     10.55000000	    -31.60306901	    -25.64709966	     37.50233618	    -49.39783556	    797.31192656	    -44.47737455	     28.51475221	    -45.00000000	     38.85004485	    -45.00000000	    -45.00000000	  -2625.20758003	  -4604.17307522	     19.86852191	   -140.40456725	   1799.81034016	   -183.09791916	     14.23325444	     14.62540411	     -0.71786553	     31.74926023	    -29.30803827	    -45.00000000	    -45.00000000	  -5674.81532624	  -2083.51155922	     26.12263223	     45.59305556	    -10.06208768	   -316.54658104	     13.16472051	    -17.24633922
     10.56000000	    -31.93443592	    -25.26664453	     36.77565475	    -51.68917607	    799.19585256	    -44.62398322	     27.82071659	    -45.00000000	     38.65038485	    -45.00000000	    -45.00000000	  -2624.96935519	  -4604.03377285	     19.78457437	   -141.22345801	   1799.78517144	   -184.54230736	     13.92532346	     14.79246463	     -0.53264983	     31.74087514	    -29.55031033	    -45.00000000	    -45.00000000	  -5674.83589380	  -2083.35934151	     26.19600243	     46.06649377	    -10.08684097	   -316.80056512	     13.13567158	    -17.18578474
     10.57000000	    -32.13065551	    -25.09138779	     36.29087146	    -53.91809248	    801.11498600	    -44.76817833	     27.85707581	    -45.00000000	     38.60244402	    -45.00000000	    -45.00000000	  -2625.01595488	  -4603.97367970	     19.87670693	   -141.50183368	   1799.77216152	   -185.68864652	     13.74119175	     14.83829074	     -0.49065481	     31.79240624	    -29.71354082	    -45.00000000	    -45.00000000	  -5674.65821151	  -2083.26299811	     26.28718697	     46.38217549	    -10.08357187	   -317.01367282	     13.20640790	    -17.21612442
     10.58000000	    -32.43390583	    -24.80152028	     35.70358195	    -56.09344875	    803.06145130	    -44.91043838	     27.81782080	    -45.00000000	     38.43936771	    -45.00000000	    -45.00000000	  -2625.05949646	  -4604.05190004	     20.09095028	   -141.80873459	   1799.98076381	   -186.69908622	     13.49267173	     14.89386093	     -0.47604982	     31.78754319	    -29.95838814	    -45.00000000	    -45.00000000	  -5674.34163646	  -2083.18212820	     26.53885213	     46.72583060	    -10.00279539	   -317.22579452	     13.35784914	    -17.34530102
     10.59000000	    -32.39552213	    -24.78304970	     35.47674313	    -58.23076428	    805.03033834	    -45.05128175	     27.75719532	    -45.00000000	     38.63483000	    -45.00000000	    -45.00000000	  -2625.20967684	  -4603.82512414	     20.03912283	   -142.02226940	   1799.76111777	   -187.82754230	     13.37433542	     14.97266556	     -0.49005726	     31.89820141	    -29.97094332	    -45.00000000	    -45.00000000	  -5674.39900483	  -2083.06370213	     26.41567906	     46.90008341	    -10.08233107	   -317.46526278	     13.43987841	    -17.33526610
     10.60000000	    -32.68474724	    -24.56830438	     34.94181420	    -60.33625532	    807.00998029	    -45.19040428	     27.74642632	    -45.00000000	     38.47593226	    -45.00000000	    -45.00000000	  -2625.25392411	  -4603.89151827	     20.18793768	   -142.44779037	   1799.86539290	   -188.91423962	     13.18615231	     15.03988987	     -0.45621622	     31.89737662	    -30.24505069	    -45.00000000	    -45.00000000	  -5674.05815449	  -2083.01183485	     26.60859679	     47.17383852	    -10.01838163	   -317.72239851	     13.57932200	    -17.41844972
